<svg width="54" height="19" viewBox="0 0 54 19" fill="none" xmlns="http://www.w3.org/2000/svg">
<path d="M0.761719 13.1719C0.867188 16.3594 3.55078 18.2812 7.58203 18.2812C11.8125 18.2812 14.4023 16.1953 14.4023 12.8906C14.4023 10.3242 12.8438 8.88281 9.26953 8.16797L7.47656 7.80469C5.48438 7.40625 4.66406 6.76172 4.66406 5.71875C4.66406 4.47656 5.83594 3.65625 7.58203 3.65625C9.36328 3.65625 10.6172 4.52344 10.7344 5.96484H14.0742C14.0156 2.85938 11.5312 0.796875 7.58203 0.796875C3.82031 0.796875 1.125 2.84766 1.125 5.94141C1.125 8.46094 2.77734 10.0781 6.15234 10.7461L7.93359 11.0977C10.0547 11.5312 10.8516 12.1641 10.8516 13.2773C10.8516 14.5195 9.5625 15.4336 7.67578 15.4336C5.75391 15.4336 4.32422 14.5898 4.10156 13.1719H0.761719ZM20.1703 1.08984V18H23.7094V12.668H26.8734C30.4359 12.668 32.9086 10.3477 32.9086 6.87891C32.9086 3.39844 30.518 1.08984 27.0492 1.08984H20.1703ZM23.7094 3.89062H26.1117C28.1391 3.89062 29.3109 4.96875 29.3109 6.89062C29.3109 8.82422 28.1273 9.90234 26.1 9.90234H23.7094V3.89062ZM46.0828 18.2812C50.2313 18.2812 53.1258 15.9023 53.5242 12.1289H50.0789C49.7039 14.1328 48.1922 15.3633 46.0945 15.3633C43.3875 15.3633 41.6883 13.1367 41.6883 9.52734C41.6883 5.96484 43.4109 3.72656 46.0828 3.72656C48.1453 3.72656 49.7391 5.08594 50.0672 7.16016H53.5125C53.243 3.375 50.1492 0.796875 46.0828 0.796875C41.1844 0.796875 38.0789 4.08984 38.0789 9.53906C38.0789 15 41.1609 18.2812 46.0828 18.2812Z" fill="#222222"/>
</svg>
