<svg width="18" height="12" viewBox="0 0 18 12" fill="none" xmlns="http://www.w3.org/2000/svg">
<path fill-rule="evenodd" clip-rule="evenodd" d="M18 11C18 11.5523 17.4963 12 16.875 12L1.125 12C0.503681 12 3.91405e-08 11.5523 8.74228e-08 11C1.35705e-07 10.4477 0.503681 10 1.125 10L16.875 10C17.4963 10 18 10.4477 18 11ZM18 6C18 6.55228 17.5971 7 17.1 7L0.9 7C0.402945 7 4.76254e-07 6.55228 5.24537e-07 6C5.72819e-07 5.44771 0.402945 5 0.9 5L17.1 5C17.5971 5 18 5.44772 18 6ZM16.875 2C17.4963 2 18 1.55229 18 1C18 0.447715 17.4963 -4.40331e-08 16.875 -9.83506e-08L1.125 -1.47526e-06C0.503682 -1.52958e-06 1.00993e-06 0.447713 9.61651e-07 0.999998C9.13368e-07 1.55228 0.503682 2 1.125 2L16.875 2Z" fill="#222222"/>
</svg>
